<?xml version="1.0" encoding="utf-8"?>
<!-- Generator: Adobe Illustrator 27.5.0, SVG Export Plug-In . SVG Version: 6.00 Build 0)  -->
<svg version="1.1" xmlns="http://www.w3.org/2000/svg" xmlns:xlink="http://www.w3.org/1999/xlink" x="0px" y="0px"
	 viewBox="0 0 750 500" style="enable-background:new 0 0 750 500;" xml:space="preserve">
<g id="BACKGROUND">
	<linearGradient id="SVGID_1_" gradientUnits="userSpaceOnUse" x1="110.9037" y1="12.2642" x2="854.5785" y2="681.7098">
		<stop  offset="0.0242" style="stop-color:#FCB61A"/>
		<stop  offset="0.1958" style="stop-color:#F78D1E"/>
		<stop  offset="0.3768" style="stop-color:#F36822"/>
		<stop  offset="0.4727" style="stop-color:#F15A24"/>
		<stop  offset="0.5556" style="stop-color:#F15E24"/>
		<stop  offset="0.6393" style="stop-color:#F36A22"/>
		<stop  offset="0.7235" style="stop-color:#F57E20"/>
		<stop  offset="0.8074" style="stop-color:#F99B1D"/>
		<stop  offset="0.8727" style="stop-color:#FCB61A"/>
	</linearGradient>
	<rect style="fill:url(#SVGID_1_);" width="750" height="500"/>
</g>
<g id="OBJECTS">
	<g>
		
			<linearGradient id="SVGID_00000091722182373519357540000010048028666627074432_" gradientUnits="userSpaceOnUse" x1="157.4285" y1="157.1971" x2="69.5081" y2="67.0882">
			<stop  offset="0" style="stop-color:#FFFFFF;stop-opacity:0"/>
			<stop  offset="0.5091" style="stop-color:#FFFFFF"/>
			<stop  offset="1" style="stop-color:#FFFFFF;stop-opacity:0"/>
		</linearGradient>
		<polygon style="opacity:0.17;fill:url(#SVGID_00000091722182373519357540000010048028666627074432_);" points="347.107,0.167 
			-0.003,347.277 -0.003,114.217 0.107,114.107 114.058,0.167 		"/>
		<g>
			
				<linearGradient id="SVGID_00000174604130905971404320000011119263081245636018_" gradientUnits="userSpaceOnUse" x1="291.7925" y1="521.9935" x2="846.6512" y2="-98.4907">
				<stop  offset="0.0242" style="stop-color:#FCB61A"/>
				<stop  offset="0.2262" style="stop-color:#F78D1E"/>
				<stop  offset="0.4394" style="stop-color:#F36822"/>
				<stop  offset="0.5523" style="stop-color:#F15A24"/>
				<stop  offset="0.6187" style="stop-color:#F15E24"/>
				<stop  offset="0.6857" style="stop-color:#F36A22"/>
				<stop  offset="0.7532" style="stop-color:#F57E20"/>
				<stop  offset="0.8204" style="stop-color:#F99B1D"/>
				<stop  offset="0.8727" style="stop-color:#FCB61A"/>
			</linearGradient>
			<polygon style="fill:url(#SVGID_00000174604130905971404320000011119263081245636018_);" points="750.107,0.167 750.107,227.997 
				478.098,500.167 115.897,500.167 615.787,0.167 			"/>
			
				<linearGradient id="SVGID_00000039129927220769448880000003233964607341892775_" gradientUnits="userSpaceOnUse" x1="-211.0604" y1="371.1837" x2="137.0143" y2="35.1997">
				<stop  offset="0.0242" style="stop-color:#FCB61A"/>
				<stop  offset="0.1958" style="stop-color:#F78D1E"/>
				<stop  offset="0.3768" style="stop-color:#F36822"/>
				<stop  offset="0.4727" style="stop-color:#F15A24"/>
				<stop  offset="0.5697" style="stop-color:#F36C22"/>
				<stop  offset="0.7623" style="stop-color:#F9991D"/>
				<stop  offset="0.8727" style="stop-color:#FCB61A"/>
			</linearGradient>
			<polygon style="fill:url(#SVGID_00000039129927220769448880000003233964607341892775_);" points="225.107,0.167 0.107,225.167 
				-0.003,225.277 -0.003,113.327 0.477,112.847 113.407,0.167 128.547,-0.003 			"/>
		</g>
	</g>
	<g>
		
			<linearGradient id="SVGID_00000096019674156679396670000000284798657197804469_" gradientUnits="userSpaceOnUse" x1="925.2563" y1="-158.966" x2="370.0713" y2="440.2792">
			<stop  offset="0.0242" style="stop-color:#FCB61A"/>
			<stop  offset="0.1958" style="stop-color:#F78D1E"/>
			<stop  offset="0.3768" style="stop-color:#F36822"/>
			<stop  offset="0.4727" style="stop-color:#F15A24"/>
			<stop  offset="0.5697" style="stop-color:#F36C22"/>
			<stop  offset="0.7623" style="stop-color:#F9991D"/>
			<stop  offset="0.8727" style="stop-color:#FCB61A"/>
		</linearGradient>
		<polygon style="fill:url(#SVGID_00000096019674156679396670000000284798657197804469_);" points="747.088,0.167 750.107,0.167 
			750.107,103.177 353.107,500.167 246.867,500.167 		"/>
		
			<linearGradient id="SVGID_00000134970535231422072600000016929979271685476259_" gradientUnits="userSpaceOnUse" x1="532.0001" y1="581.8304" x2="762.2296" y2="361.5892">
			<stop  offset="0.0242" style="stop-color:#FCB61A"/>
			<stop  offset="0.0807" style="stop-color:#F78D1E"/>
			<stop  offset="0.1402" style="stop-color:#F36822"/>
			<stop  offset="0.1717" style="stop-color:#F15A24"/>
			<stop  offset="0.3462" style="stop-color:#F15E24"/>
			<stop  offset="0.5122" style="stop-color:#F36922"/>
			<stop  offset="0.6749" style="stop-color:#F57C20"/>
			<stop  offset="0.8344" style="stop-color:#F8971D"/>
			<stop  offset="0.9773" style="stop-color:#FCB61A"/>
		</linearGradient>
		<polygon style="fill:url(#SVGID_00000134970535231422072600000016929979271685476259_);" points="750.107,313.167 
			563.102,500.167 680.107,500.167 750.107,430.167 		"/>
	</g>
	<g>
		
			<linearGradient id="SVGID_00000118359376206879554700000017235333870213119913_" gradientUnits="userSpaceOnUse" x1="51.0593" y1="53.912" x2="166.9278" y2="117.3489">
			<stop  offset="0" style="stop-color:#F15A24;stop-opacity:0"/>
			<stop  offset="0.5" style="stop-color:#F15A24"/>
			<stop  offset="1" style="stop-color:#F15A24;stop-opacity:0"/>
		</linearGradient>
		<polygon style="fill:url(#SVGID_00000118359376206879554700000017235333870213119913_);" points="114.107,0.167 40.107,0.167 
			0,114.221 		"/>
		
			<linearGradient id="SVGID_00000004548617339356142350000000316035673608236178_" gradientUnits="userSpaceOnUse" x1="307.3635" y1="79.6809" x2="235.427" y2="-27.2791">
			<stop  offset="0" style="stop-color:#F15A24;stop-opacity:0"/>
			<stop  offset="0.5" style="stop-color:#F14524"/>
			<stop  offset="1" style="stop-color:#F15A24;stop-opacity:0"/>
		</linearGradient>
		<polygon style="fill:url(#SVGID_00000004548617339356142350000000316035673608236178_);" points="347.107,0.167 172.857,174.417 
			452.107,0.167 		"/>
		
			<linearGradient id="SVGID_00000038412395729523689240000010283120492915539604_" gradientUnits="userSpaceOnUse" x1="56.3577" y1="336.5158" x2="-103.4682" y2="215.8889">
			<stop  offset="0" style="stop-color:#F15A24;stop-opacity:0"/>
			<stop  offset="0.5" style="stop-color:#F14524"/>
			<stop  offset="1" style="stop-color:#F15A24;stop-opacity:0"/>
		</linearGradient>
		<polygon style="fill:url(#SVGID_00000038412395729523689240000010283120492915539604_);" points="150.107,197.167 
			111.287,276.617 104.877,289.727 104.867,289.737 2.147,499.997 0.107,504.167 0.058,499.997 -0.003,495.647 -0.003,347.277 		"/>
		
			<linearGradient id="SVGID_00000128458295490035965670000000988641114314550935_" gradientUnits="userSpaceOnUse" x1="619.7155" y1="188.1508" x2="653.1345" y2="231.0187">
			<stop  offset="0" style="stop-color:#F15A24;stop-opacity:0"/>
			<stop  offset="0.5" style="stop-color:#F14524"/>
			<stop  offset="1" style="stop-color:#F15A24;stop-opacity:0"/>
		</linearGradient>
		<polygon style="fill:url(#SVGID_00000128458295490035965670000000988641114314550935_);" points="750.107,103.167 
			750.107,228.167 654.107,324.167 529.107,324.167 		"/>
		
			<linearGradient id="SVGID_00000043459183551050239170000002428794882346557082_" gradientUnits="userSpaceOnUse" x1="397.0548" y1="385.6142" x2="442.3898" y2="421.4921">
			<stop  offset="0" style="stop-color:#F15A24;stop-opacity:0"/>
			<stop  offset="0.5" style="stop-color:#F14524"/>
			<stop  offset="1" style="stop-color:#F15A24;stop-opacity:0"/>
		</linearGradient>
		<polygon style="fill:url(#SVGID_00000043459183551050239170000002428794882346557082_);" points="589.607,388.667 
			478.107,500.167 353.107,500.167 464.609,388.667 		"/>
		
			<linearGradient id="SVGID_00000161592341141558080900000015209219976900965554_" gradientUnits="userSpaceOnUse" x1="728.4693" y1="485.9713" x2="664.0187" y2="385.6228">
			<stop  offset="0" style="stop-color:#F15A24;stop-opacity:0"/>
			<stop  offset="0.3629" style="stop-color:#F14B24;stop-opacity:0.5423"/>
			<stop  offset="0.6691" style="stop-color:#F14524"/>
			<stop  offset="1" style="stop-color:#F15A24;stop-opacity:0"/>
		</linearGradient>
		<polygon style="fill:url(#SVGID_00000161592341141558080900000015209219976900965554_);" points="750.107,430.167 
			680.107,500.167 750.107,500.167 		"/>
		
			<linearGradient id="SVGID_00000039849108991419320000000009491626002573854124_" gradientUnits="userSpaceOnUse" x1="742.0408" y1="465.5571" x2="642.4328" y2="386.6155">
			<stop  offset="0" style="stop-color:#F15A24;stop-opacity:0"/>
			<stop  offset="0.6691" style="stop-color:#F14524"/>
			<stop  offset="1" style="stop-color:#F15A24;stop-opacity:0"/>
		</linearGradient>
		<polygon style="fill:url(#SVGID_00000039849108991419320000000009491626002573854124_);" points="750.107,228.167 
			478.107,500.167 563.107,500.167 750.107,313.167 		"/>
		
			<linearGradient id="SVGID_00000081629627262675855190000018115297477463916982_" gradientUnits="userSpaceOnUse" x1="111.5591" y1="62.9557" x2="187.8773" y2="-10.7114">
			<stop  offset="0.0242" style="stop-color:#FCB61A"/>
			<stop  offset="0.1958" style="stop-color:#F78D1E"/>
			<stop  offset="0.3768" style="stop-color:#F36822"/>
			<stop  offset="0.4727" style="stop-color:#F15A24"/>
			<stop  offset="0.5697" style="stop-color:#F36C22"/>
			<stop  offset="0.7623" style="stop-color:#F9991D"/>
			<stop  offset="0.8727" style="stop-color:#FCB61A"/>
		</linearGradient>
		<polyline style="fill:url(#SVGID_00000081629627262675855190000018115297477463916982_);" points="128.107,0.167 225.107,0.167 
			224.968,0.167 		"/>
	</g>
	<g>
		<defs>
			<rect id="SVGID_00000013876458312657774550000013539043961922652301_" width="750" height="500"/>
		</defs>
		<clipPath id="SVGID_00000021835718777648961230000003670333485184664988_">
			<use xlink:href="#SVGID_00000013876458312657774550000013539043961922652301_"  style="overflow:visible;"/>
		</clipPath>
		<g style="clip-path:url(#SVGID_00000021835718777648961230000003670333485184664988_);">
			<g style="opacity:0.1;">
				<g>
					<path style="fill:#FFFFFF;" d="M268.098,304.177c-18.93,20.41-38.21,40.45-57.62,60.38c-9.67,10-19.47,19.86-29.2,29.79
						l-29.41,29.59l-29.6,29.4c-9.92,9.74-19.79,19.54-29.79,29.21c-6.05,5.89-12.1,11.771-18.181,17.62h-4.31
						c6.56-6.81,13.14-13.6,19.74-20.37c9.67-10,19.47-19.87,29.21-29.79l29.4-29.6l29.59-29.41c9.93-9.73,19.79-19.53,29.79-29.2
						C227.647,342.387,247.687,323.107,268.098,304.177z"/>
				</g>
			</g>
			<g style="opacity:0.05;">
				<g>
					<path style="fill:#FFFFFF;" d="M392.008,0.167l-1.57,1.61l-31.73,32.52c-21.199,21.62-42.43,43.22-63.73,64.76
						c-21.25,21.58-42.64,43.03-63.95,64.54l-64.16,64.34l-61.99,61.79l-0.01,0.011l-2.35,2.35
						c-21.51,21.32-42.95,42.72-64.561,63.94l-37.85,37.27l-0.11,0.11v-4.29l0.11-0.11l35.14-35.689
						c21.221-21.61,42.62-43.051,63.94-64.561l12.1-12.14l52.051-52.21l64.34-64.16c21.51-21.311,42.96-42.7,64.54-63.95
						c21.54-21.3,43.14-42.53,64.76-63.729l32.52-31.731l0.69-0.67H392.008z"/>
				</g>
			</g>
			<g style="opacity:0.1;">
				<g>
					<g>
						<path style="fill:#FFFFFF;" d="M750.107,144.867v4.64c-9.53,9.69-19.07,19.38-28.63,29.05c-20,20.33-40.14,40.53-60.2,60.79
							l-60.41,60.59l-60.6,60.4c-20.26,20.07-40.45,40.22-60.811,60.19l-60.989,60l-20.15,19.64h-2.39l20.819-21.36l60-60.989
							c19.971-20.36,40.12-40.551,60.19-60.811l60.4-60.6l60.59-60.41c20.26-20.061,40.46-40.2,60.79-60.2
							C729.168,165.467,739.638,155.157,750.107,144.867z"/>
					</g>
				</g>
			</g>
			<g style="opacity:0.1;">
				<g>
					<g>
						<path style="fill:#FFFFFF;" d="M725,25l-45,45c-9.53,9.69-26.07,27.706-35.63,37.376c-20,20.33-40.14,40.53-60.2,60.79
							l-60.41,60.59l-60.6,60.4c-20.26,20.07-40.45,40.22-60.811,60.19l-60.989,60l-20.15,19.64h-2.39l20.819-21.36l60-60.989
							c19.971-20.36,40.12-40.551,60.19-60.811l60.4-60.6l60.59-60.41c20.26-20.061,40.46-40.2,60.79-60.2
							C652.061,94.286,714.53,35.29,725,25z"/>
					</g>
				</g>
			</g>
			<g style="opacity:0.1;">
				<g>
					<g>
						<path style="fill:#FFFFFF;" d="M543,73.687L580,35c-9.53,9.69-56.07,62.706-65.63,72.376c-20,20.33-40.14,40.53-60.2,60.79
							l-60.41,60.59l-60.6,60.4c-20.26,20.07-40.45,40.22-60.811,60.19l-60.989,60l-20.15,19.64h-2.39l20.819-21.36l60-60.989
							c19.971-20.36,40.12-40.551,60.19-60.811l60.4-60.6l60.59-60.41c20.26-20.061,40.46-40.2,60.79-60.2
							C522.061,94.286,532.53,83.977,543,73.687z"/>
					</g>
				</g>
			</g>
			<g style="opacity:0.1;">
				<g>
					<g>
						<path style="fill:#FFFFFF;" d="M299.18-75.3l37-38.687c-9.53,9.69-56.07,62.706-65.63,72.376
							c-20,20.33-40.14,40.53-60.2,60.79l-60.41,60.59l-60.6,60.4c-20.26,20.07-40.45,40.22-60.811,60.19l-60.989,60L-52.61,280H-55
							l20.819-21.36l60-60.989c19.971-20.36,40.12-40.551,60.19-60.811l60.4-60.6L207,15.83c20.26-20.061,40.46-40.2,60.79-60.2
							C278.24-54.7,288.71-65.01,299.18-75.3z"/>
					</g>
				</g>
			</g>
		</g>
	</g>
</g>
</svg>
